<?xml version="1.0" encoding="us-ascii" standalone="no"?><svg xmlns="http://www.w3.org/2000/svg" xmlns:xlink="http://www.w3.org/1999/xlink" contentStyleType="text/css" height="391px" preserveAspectRatio="none" style="width:1342px;height:391px;background:#FFFFFF;" version="1.1" viewBox="0 0 1342 391" width="1342px" zoomAndPan="magnify"><defs/><g><!--cluster External Triggers--><g id="cluster_External Triggers"><path d="M13.5,11 L150.5,11 A3.75,3.75 0 0 1 153,13.5 L160,34.0146 L539.5,34.0146 A2.5,2.5 0 0 1 542,36.5146 L542,127.52 A2.5,2.5 0 0 1 539.5,130.02 L13.5,130.02 A2.5,2.5 0 0 1 11,127.52 L11,13.5 A2.5,2.5 0 0 1 13.5,11 " fill="#FFFFFF" style="stroke:#000000;stroke-width:1.0;"/><line style="stroke:#000000;stroke-width:1.0;" x1="11" x2="160" y1="34.0146" y2="34.0146"/><text fill="#000000" font-family="Verdana" font-size="14" font-weight="bold" lengthAdjust="spacing" textLength="136" x="15" y="27.0752">External Triggers</text></g><!--cluster Google Cloud Run (Jobs)--><g id="cluster_Google Cloud Run (Jobs)"><path d="M207.5435,189.2792 C216.8333,174.411 228.6184,176.368 236.5325,190.6475 C242.2028,178.3478 253.9745,174.2306 262.7171,187.5014 C268.7167,171.3439 282.2233,173.4798 291.2645,184.2805 C300.9069,169.7637 314.9238,171.4137 321.7171,187.1485 C329.0574,172.497 340.5019,173.0371 348.9254,186.0844 C356.2604,172.0354 365.6589,167.8571 377.5458,181.3552 C386.705,167.4564 397.6288,170.0485 406.1387,182.0714 C413.3065,169.1465 426.6206,168.7016 433.6728,182.1919 C444.0501,168.7871 453.2288,166.759 463.2899,182.513 C473.4664,171.0492 487.3186,172.2588 491.6947,188.467 C497.8141,174.8274 508.8464,177.1027 516.7007,186.5913 C525.5636,173.4588 539.1681,173.1453 546.5148,188.1953 C557.3082,172.7372 569.0411,174.9731 577.9874,190.0962 C590.3573,176.8583 600.4724,176.8899 609,194.02 C610.7717,195.1053 611.0156,196.822 609.2007,198.0844 C627.8656,206.7767 631.7701,220.4895 614.9839,234.7703 C632.6686,248.5779 632.528,263.1763 614.8222,276.8479 C632.7781,290.6351 630.6724,301.9316 612.1073,312.9743 C633.4503,330.3055 627.1344,351.125 602,358.03 C604.6578,357.6647 606.5407,359.4374 605.6156,362.1878 C595.1266,376.0524 585.3365,373.5526 576.819,360.1088 C569.4422,374.5723 559.4655,377.2233 548.2135,364.1317 C542.8099,376.812 529.3481,377.8332 521.3832,367.0621 C513.6076,382.0444 498.4116,382.1337 490.0768,367.6563 C481.7426,381.242 473.2346,379.0738 464.6365,367.9279 C455.2991,383.2778 444.8666,384.4628 434.3765,369.0622 C425.4841,383.768 410.8853,381.9794 402.5608,368.423 C394.5076,381.0502 385.2716,381.2719 375.5549,370.3289 C366.0122,381.4777 355.9973,380.8034 350.3977,366.4406 C341.5238,380.3665 329.8609,379.0382 321.1859,366.2233 C313.7139,377.6198 300.7493,377.5495 293.6817,365.7439 C282.3445,381.6479 272.0508,378.1983 261.9674,364.405 C254.2278,375.5218 242.0721,374.898 236.3165,362.2624 C216.4707,379.7756 205.0582,372.237 196,351.03 C199.1601,349.8986 200.6846,350.9299 200.4211,354.3532 C181.3664,346.4489 175.432,330.5481 194.1783,316.4224 C173.5321,303.229 172.0183,284.5463 195.4295,272.6112 C176.3911,260.3263 179.3335,247.7284 195.0443,235.0867 C172.18,217.8146 180.8538,196.8423 203,187.02 C205.2215,185.4535 207.33,186.8072 207.5435,189.2792 " fill="#FFFFFF" style="stroke:#000000;stroke-width:1.0;"/><text fill="#000000" font-family="Verdana" font-size="14" font-weight="bold" lengthAdjust="spacing" textLength="198" x="303.5" y="206.0952">Google Cloud Run (Jobs)</text></g><!--cluster Job--><g id="cluster_Job"><rect fill="#FFFFFF" height="119.01" rx="2.5" ry="2.5" style="stroke:#000000;stroke-width:1.0;" width="381" x="212" y="223.02"/><rect fill="#FFFFFF" height="10" style="stroke:#000000;stroke-width:1.0;" width="15" x="573" y="228.02"/><rect fill="#FFFFFF" height="2" style="stroke:#000000;stroke-width:1.0;" width="4" x="571" y="230.02"/><rect fill="#FFFFFF" height="2" style="stroke:#000000;stroke-width:1.0;" width="4" x="571" y="234.02"/><text fill="#000000" font-family="Verdana" font-size="14" font-weight="bold" lengthAdjust="spacing" textLength="117" x="344" y="250.0952">Ephemeral Job</text></g><!--entity CLI--><g id="elem_CLI"><rect fill="#FFFFFF" height="47.0146" rx="2.5" ry="2.5" style="stroke:#000000;stroke-width:1.0;" width="127" x="27.5" y="67"/><rect fill="#FFFFFF" height="10" style="stroke:#000000;stroke-width:1.0;" width="15" x="134.5" y="72"/><rect fill="#FFFFFF" height="2" style="stroke:#000000;stroke-width:1.0;" width="4" x="132.5" y="74"/><rect fill="#FFFFFF" height="2" style="stroke:#000000;stroke-width:1.0;" width="4" x="132.5" y="78"/><text fill="#000000" font-family="Verdana" font-size="14" lengthAdjust="spacing" textLength="87" x="42.5" y="101.0752">CLI (gcloud)</text></g><!--entity Cron--><g id="elem_Cron"><rect fill="#FFFFFF" height="47.0146" rx="2.5" ry="2.5" style="stroke:#000000;stroke-width:1.0;" width="155" x="189.5" y="67"/><rect fill="#FFFFFF" height="10" style="stroke:#000000;stroke-width:1.0;" width="15" x="324.5" y="72"/><rect fill="#FFFFFF" height="2" style="stroke:#000000;stroke-width:1.0;" width="4" x="322.5" y="74"/><rect fill="#FFFFFF" height="2" style="stroke:#000000;stroke-width:1.0;" width="4" x="322.5" y="78"/><text fill="#000000" font-family="Verdana" font-size="14" lengthAdjust="spacing" textLength="115" x="204.5" y="101.0752">Cloud Scheduler</text></g><!--entity CI--><g id="elem_CI"><rect fill="#FFFFFF" height="47.0146" rx="2.5" ry="2.5" style="stroke:#000000;stroke-width:1.0;" width="146" x="380" y="67"/><rect fill="#FFFFFF" height="10" style="stroke:#000000;stroke-width:1.0;" width="15" x="506" y="72"/><rect fill="#FFFFFF" height="2" style="stroke:#000000;stroke-width:1.0;" width="4" x="504" y="74"/><rect fill="#FFFFFF" height="2" style="stroke:#000000;stroke-width:1.0;" width="4" x="504" y="78"/><text fill="#000000" font-family="Verdana" font-size="14" lengthAdjust="spacing" textLength="106" x="395" y="101.0752">GitHub Actions</text></g><!--entity Runner--><g id="elem_Runner"><rect fill="#FFFFFF" height="47.0146" rx="2.5" ry="2.5" style="stroke:#000000;stroke-width:1.0;" width="119" x="228.5" y="279.02"/><rect fill="#FFFFFF" height="10" style="stroke:#000000;stroke-width:1.0;" width="15" x="327.5" y="284.02"/><rect fill="#FFFFFF" height="2" style="stroke:#000000;stroke-width:1.0;" width="4" x="325.5" y="286.02"/><rect fill="#FFFFFF" height="2" style="stroke:#000000;stroke-width:1.0;" width="4" x="325.5" y="290.02"/><text fill="#000000" font-family="Verdana" font-size="14" lengthAdjust="spacing" textLength="79" x="243.5" y="313.0952">Job Runner</text></g><!--entity ZAP--><g id="elem_ZAP"><rect fill="#FFFFFF" height="47.0146" rx="2.5" ry="2.5" style="stroke:#000000;stroke-width:1.0;" width="121" x="455.5" y="279.02"/><rect fill="#FFFFFF" height="10" style="stroke:#000000;stroke-width:1.0;" width="15" x="556.5" y="284.02"/><rect fill="#FFFFFF" height="2" style="stroke:#000000;stroke-width:1.0;" width="4" x="554.5" y="286.02"/><rect fill="#FFFFFF" height="2" style="stroke:#000000;stroke-width:1.0;" width="4" x="554.5" y="290.02"/><text fill="#000000" font-family="Verdana" font-size="14" lengthAdjust="spacing" textLength="81" x="470.5" y="313.0952">ZAP Engine</text></g><!--entity LLM--><g id="elem_LLM"><rect fill="#FFFFFF" height="47.0146" rx="2.5" ry="2.5" style="stroke:#000000;stroke-width:1.0;" width="118" x="889" y="279.02"/><rect fill="#FFFFFF" height="10" style="stroke:#000000;stroke-width:1.0;" width="15" x="987" y="284.02"/><rect fill="#FFFFFF" height="2" style="stroke:#000000;stroke-width:1.0;" width="4" x="985" y="286.02"/><rect fill="#FFFFFF" height="2" style="stroke:#000000;stroke-width:1.0;" width="4" x="985" y="290.02"/><text fill="#000000" font-family="Verdana" font-size="14" lengthAdjust="spacing" textLength="78" x="904" y="313.0952">Gemini 1.5</text></g><!--entity GCS--><g id="elem_GCS"><rect fill="#FFFFFF" height="47.0146" rx="2.5" ry="2.5" style="stroke:#000000;stroke-width:1.0;" width="140" x="1196" y="279.02"/><rect fill="#FFFFFF" height="10" style="stroke:#000000;stroke-width:1.0;" width="15" x="1316" y="284.02"/><rect fill="#FFFFFF" height="2" style="stroke:#000000;stroke-width:1.0;" width="4" x="1314" y="286.02"/><rect fill="#FFFFFF" height="2" style="stroke:#000000;stroke-width:1.0;" width="4" x="1314" y="290.02"/><text fill="#000000" font-family="Verdana" font-size="14" lengthAdjust="spacing" textLength="100" x="1211" y="313.0952">Cloud Storage</text></g><!--entity Target--><g id="elem_Target"><polygon fill="#FFFFFF" points="1042.5,289.02,1052.5,279.02,1161.5,279.02,1161.5,316.0346,1151.5,326.0346,1042.5,326.0346,1042.5,289.02" style="stroke:#000000;stroke-width:1.0;"/><line style="stroke:#000000;stroke-width:1.0;" x1="1151.5" x2="1161.5" y1="289.02" y2="279.02"/><line style="stroke:#000000;stroke-width:1.0;" x1="1042.5" x2="1151.5" y1="289.02" y2="289.02"/><line style="stroke:#000000;stroke-width:1.0;" x1="1151.5" x2="1151.5" y1="289.02" y2="326.0346"/><text fill="#000000" font-family="Verdana" font-size="14" lengthAdjust="spacing" textLength="46" x="1057.5" y="313.0952">Target</text><text fill="#000000" font-family="Verdana" font-size="14" lengthAdjust="spacing" textLength="5" x="1103.5" y="313.0952">&#160;</text><text fill="#000000" font-family="Verdana" font-size="14" lengthAdjust="spacing" textLength="28" x="1108.5" y="313.0952">URL</text></g><!--link CLI to Runner--><g id="link_CLI_Runner"><path d="M92.49,114.31 C94.37,129.17 98.57,148.44 108,163.02 C141.62,214.99 196.4859,252.3589 237.9259,275.7689 " fill="none" id="CLI-to-Runner" style="stroke:#000000;stroke-width:1.0;"/><polygon fill="#000000" points="243.15,278.72,237.2813,270.8106,238.7966,276.2607,233.3465,277.776,243.15,278.72" style="stroke:#000000;stroke-width:1.0;"/><text fill="#000000" font-family="Verdana" font-size="13" lengthAdjust="spacing" textLength="155" x="109" y="160.0898">Start Job (--ai-prompt)</text></g><!--link Cron to Runner--><g id="link_Cron_Runner"><path d="M269.29,114.38 C273.33,154.78 281.0827,232.3298 285.1227,272.7098 " fill="none" id="Cron-to-Runner" style="stroke:#000000;stroke-width:1.0;"/><polygon fill="#000000" points="285.72,278.68,288.8042,269.3265,285.2222,273.7048,280.8439,270.1229,285.72,278.68" style="stroke:#000000;stroke-width:1.0;"/><text fill="#000000" font-family="Verdana" font-size="13" lengthAdjust="spacing" textLength="105" x="274.79" y="160.0898">Scheduled Scan</text></g><!--link CI to Runner--><g id="link_CI_Runner"><path d="M435.03,114.38 C403.29,154.78 341.3764,233.5817 309.6564,273.9617 " fill="none" id="CI-to-Runner" style="stroke:#000000;stroke-width:1.0;"/><polygon fill="#000000" points="305.95,278.68,314.6552,274.0735,309.0387,274.7481,308.3641,269.1316,305.95,278.68" style="stroke:#000000;stroke-width:1.0;"/><text fill="#000000" font-family="Verdana" font-size="13" lengthAdjust="spacing" textLength="71" x="409.75" y="160.0898">CI Pipeline</text></g><!--link Runner to LLM--><g id="link_Runner_LLM"><path d="M307.83,278.53 C334.03,248.91 383.3,200.1 438,180.68 C609.36,119.86 818.6372,225.0899 904.5972,275.6099 " fill="none" id="Runner-to-LLM" style="stroke:#000000;stroke-width:1.0;"/><polygon fill="#000000" points="909.77,278.65,904.0376,270.6413,905.4593,276.1166,899.9841,277.5383,909.77,278.65" style="stroke:#000000;stroke-width:1.0;"/><text fill="#000000" font-family="Verdana" font-size="13" lengthAdjust="spacing" textLength="116" x="772" y="160.0898">Configure Checks</text></g><!--link Runner to ZAP--><g id="link_Runner_ZAP"><path d="M347.79,319.54 C353.73,320.76 359.71,321.79 365.5,322.52 C397.25,326.55 405.75,326.5 437.5,322.52 C443.22,321.81 443.2354,321.9709 449.1154,320.8009 " fill="none" id="Runner-to-ZAP" style="stroke:#000000;stroke-width:1.0;"/><polygon fill="#000000" points="455,319.63,445.3924,317.4633,450.0961,320.6058,446.9537,325.3095,455,319.63" style="stroke:#000000;stroke-width:1.0;"/><text fill="#000000" font-family="Verdana" font-size="13" lengthAdjust="spacing" textLength="70" x="366.5" y="319.5898">Start Scan</text></g><!--link Runner to ZAP--><g id="link_Runner_ZAP"><path d="M347.9,302.52 C381.02,302.52 416.07,302.52 449.31,302.52 " fill="none" id="Runner-to-ZAP-1" style="stroke:#000000;stroke-width:1.0;"/><polygon fill="#000000" points="455.31,302.52,446.31,298.52,450.31,302.52,446.31,306.52,455.31,302.52" style="stroke:#000000;stroke-width:1.0;"/><text fill="#000000" font-family="Verdana" font-size="13" lengthAdjust="spacing" textLength="71" x="366" y="296.5898">Poll Status</text></g><!--link ZAP to Target--><g id="link_ZAP_Target"><path d="M567.81,278.64 C635.71,248.78 759.33,199.31 871,180.68 C938.51,169.42 965.05,147.65 1025,180.68 C1062.81,201.51 1082.6366,243.9273 1092.8466,273.0773 " fill="none" id="ZAP-to-Target" style="stroke:#000000;stroke-width:1.0;"/><polygon fill="#000000" points="1094.83,278.74,1095.63,268.9237,1093.1772,274.0211,1088.0798,271.5682,1094.83,278.74" style="stroke:#000000;stroke-width:1.0;"/><text fill="#000000" font-family="Verdana" font-size="13" lengthAdjust="spacing" textLength="42" x="578" y="160.0898">Attack</text></g><!--link Runner to GCS--><g id="link_Runner_GCS"><path d="M307.83,278.53 C334.03,248.91 383.3,200.1 438,180.68 C515.59,153.14 1105.79,143 1179,180.68 C1218.86,201.2 1242.1554,243.8713 1254.6354,273.1213 " fill="none" id="Runner-to-GCS" style="stroke:#000000;stroke-width:1.0;"/><polygon fill="#000000" points="1256.99,278.64,1257.1372,268.7922,1255.0278,274.0411,1249.7789,271.9318,1256.99,278.64" style="stroke:#000000;stroke-width:1.0;"/><text fill="#000000" font-family="Verdana" font-size="13" lengthAdjust="spacing" textLength="138" x="627" y="160.0898">Save Report (SARIF)</text></g><!--SRC=[PLB1JiCm3BtdAqnFxQ58877P0QcQHXagqjIE2nE7h3DPj3IfqXI1qFuT9yrW6haazhEVdvzovVRO8VIAIys6WzGzjxo3rdIzqQXTuxuKmjYfMyPwtXwuG4WMdmwjvWhMLWg1TaZWcm6TpRnQGYfQPSPTzWPy04f4nEUWQVUu6nNQ2RH6JsWftUEuXQ9rqkXX0fVio5YWWgGqHf2EYQGUDQHFPZjafxc_SabRxnUo98ug4az4TomBP-DZej1HnFGymr-B5Ioqa1e3Jc40Zq7Etw0IEwabt5pVXIbLzNoEndMTiUHOA2Zd3TDcH_QjkHNeuAMk0Z25Z7dlylm-2e8PTNFhWlmqpxdCUqlyBcFUjelAQAitc6islo2YU2LxLBGIOp5BE4dseD7lKeoMtDrZUnZE2hmJ9nc1s2Se7nUOGU4S_Ob_7IkZb6zpupaR6U3P-0T2ZRqXphGfwkL3zWC0]--></g></svg>