<?xml version="1.0" encoding="us-ascii" standalone="no"?><svg xmlns="http://www.w3.org/2000/svg" xmlns:xlink="http://www.w3.org/1999/xlink" contentStyleType="text/css" height="298px" preserveAspectRatio="none" style="width:1685px;height:298px;background:#FFFFFF;" version="1.1" viewBox="0 0 1685 298" width="1685px" zoomAndPan="magnify"><defs/><g><!--cluster Google Cloud Platform--><g id="cluster_Google Cloud Platform"><path d="M63.5284,67.6137 C87.4497,36.5902 119.5849,41.8239 136.294,75.7 C168.2598,33.4302 196.635,35.7449 225.3264,79.1046 C248.4555,36.6762 271.8678,33.9575 301.1313,73.4265 C330.1455,36.2501 364.7979,28.245 392.935,74.3929 C414.1527,39.3081 445.618,29.3962 471.1103,69.9764 C489.9971,28.2208 525.275,26.5205 547.0032,67.3659 C572.8871,25.7147 602.9942,24.047 627.5445,68.6118 C656.5057,26.6411 683.4009,31.1022 708.5515,72.3223 C732.1261,27.1075 772.2355,27.4879 800.2458,67.5528 C824.6904,32.6236 850.7926,28.8429 875.4287,67.3568 C901.916,30.0252 943.4959,27.3843 963.2005,74.4137 C980.9684,30.8259 1018.2067,30.6665 1041.0641,69.6121 C1067.1157,33.927 1095.1249,31.3425 1120.9185,69.8896 C1146.7407,32.0653 1178.8576,40.4215 1200.6868,74.33 C1208.2093,72.6458 1212.5032,75.2913 1210.8396,83.6327 C1251.1768,103.7314 1246.3143,138.883 1209.9939,158.1112 C1246.6666,192.6935 1232.7902,219.1598 1193.6868,238.34 C1201.5085,237.8896 1205.6616,242.9869 1201.436,250.3256 C1173.1943,282.5036 1144.8011,287.1595 1121.5835,244.9336 C1097.7983,278.4843 1062.4071,281.3341 1041.2497,242.0358 C1022.3126,279.0015 985.5978,287.6962 960.4548,248.6306 C932.1916,290.516 899.9279,282.5305 873.6449,246.4265 C844.6225,288.1418 815.611,278.9923 790.4607,242.3174 C766.8009,277.7707 738.1435,282.2582 709.0545,248.724 C676.5985,282.2351 650.1255,287.6064 625.0808,240.9598 C602.7959,278.6452 577.0034,285.7313 548.2336,247.5263 C519.5582,286.004 491.439,289.9006 464.4401,245.8248 C441.5687,278.8508 407.1648,276.0602 387.2763,242.3745 C365.6567,275 331.8052,276.0806 308.2539,244.7617 C286.7278,281.6723 243.3713,291.1827 221.314,245.3197 C203.8978,282.2148 167.5847,284.2199 144.7093,251.3107 C111.6628,286.1779 61.7572,284.7053 46.6868,231.34 C52.7422,230.1416 57.4435,233.731 55.3986,240.3579 C18.7732,215.8012 13.4701,187.1795 53.1133,160.4418 C15.4079,128.2778 11,98.9989 53.6868,67.33 C56.4992,62.2991 60.9866,63.2598 63.5284,67.6137 " fill="#FFFFFF" style="stroke:#000000;stroke-width:1.0;"/><text fill="#000000" font-family="Verdana" font-size="14" font-weight="bold" lengthAdjust="spacing" textLength="178" x="534.6868" y="86.4052">Google Cloud Platform</text></g><!--cluster Cloud Run Service--><g id="cluster_Cloud Run Service"><path d="M65.1868,103.33 L209.1868,103.33 A3.75,3.75 0 0 1 211.6868,105.83 L218.6868,126.3446 L852.1868,126.3446 A2.5,2.5 0 0 1 854.6868,128.8446 L854.6868,219.84 A2.5,2.5 0 0 1 852.1868,222.34 L65.1868,222.34 A2.5,2.5 0 0 1 62.6868,219.84 L62.6868,105.83 A2.5,2.5 0 0 1 65.1868,103.33 " fill="#FFFFFF" style="stroke:#000000;stroke-width:1.0;"/><line style="stroke:#000000;stroke-width:1.0;" x1="62.6868" x2="218.6868" y1="126.3446" y2="126.3446"/><text fill="#000000" font-family="Verdana" font-size="14" font-weight="bold" lengthAdjust="spacing" textLength="143" x="66.6868" y="119.4052">Cloud Run Service</text></g><!--entity LLM--><g id="elem_LLM"><rect fill="#FFFFFF" height="47.0146" rx="2.5" ry="2.5" style="stroke:#000000;stroke-width:1.0;" width="145" x="873.1868" y="159.33"/><rect fill="#FFFFFF" height="10" style="stroke:#000000;stroke-width:1.0;" width="15" x="998.1868" y="164.33"/><rect fill="#FFFFFF" height="2" style="stroke:#000000;stroke-width:1.0;" width="4" x="996.1868" y="166.33"/><rect fill="#FFFFFF" height="2" style="stroke:#000000;stroke-width:1.0;" width="4" x="996.1868" y="170.33"/><text fill="#000000" font-family="Verdana" font-size="14" lengthAdjust="spacing" textLength="105" x="888.1868" y="193.4052">Gemini 1.5 Pro</text></g><!--entity GCS--><g id="elem_GCS"><rect fill="#FFFFFF" height="47.0146" rx="2.5" ry="2.5" style="stroke:#000000;stroke-width:1.0;" width="140" x="1052.6868" y="159.33"/><rect fill="#FFFFFF" height="10" style="stroke:#000000;stroke-width:1.0;" width="15" x="1172.6868" y="164.33"/><rect fill="#FFFFFF" height="2" style="stroke:#000000;stroke-width:1.0;" width="4" x="1170.6868" y="166.33"/><rect fill="#FFFFFF" height="2" style="stroke:#000000;stroke-width:1.0;" width="4" x="1170.6868" y="170.33"/><text fill="#000000" font-family="Verdana" font-size="14" lengthAdjust="spacing" textLength="100" x="1067.6868" y="193.4052">Cloud Storage</text></g><!--entity UI--><g id="elem_UI"><rect fill="#FFFFFF" height="47.0146" rx="2.5" ry="2.5" style="stroke:#000000;stroke-width:1.0;" width="147" x="79.1868" y="159.33"/><rect fill="#FFFFFF" height="10" style="stroke:#000000;stroke-width:1.0;" width="15" x="206.1868" y="164.33"/><rect fill="#FFFFFF" height="2" style="stroke:#000000;stroke-width:1.0;" width="4" x="204.1868" y="166.33"/><rect fill="#FFFFFF" height="2" style="stroke:#000000;stroke-width:1.0;" width="4" x="204.1868" y="170.33"/><text fill="#000000" font-family="Verdana" font-size="14" lengthAdjust="spacing" textLength="107" x="94.1868" y="193.4052">React Frontend</text></g><!--entity API--><g id="elem_API"><rect fill="#FFFFFF" height="47.0146" rx="2.5" ry="2.5" style="stroke:#000000;stroke-width:1.0;" width="157" x="356.1868" y="159.33"/><rect fill="#FFFFFF" height="10" style="stroke:#000000;stroke-width:1.0;" width="15" x="493.1868" y="164.33"/><rect fill="#FFFFFF" height="2" style="stroke:#000000;stroke-width:1.0;" width="4" x="491.1868" y="166.33"/><rect fill="#FFFFFF" height="2" style="stroke:#000000;stroke-width:1.0;" width="4" x="491.1868" y="170.33"/><text fill="#000000" font-family="Verdana" font-size="14" lengthAdjust="spacing" textLength="117" x="371.1868" y="193.4052">FastAPI Backend</text></g><!--entity ZAP--><g id="elem_ZAP"><rect fill="#FFFFFF" height="47.0146" rx="2.5" ry="2.5" style="stroke:#000000;stroke-width:1.0;" width="121" x="717.1868" y="159.33"/><rect fill="#FFFFFF" height="10" style="stroke:#000000;stroke-width:1.0;" width="15" x="818.1868" y="164.33"/><rect fill="#FFFFFF" height="2" style="stroke:#000000;stroke-width:1.0;" width="4" x="816.1868" y="166.33"/><rect fill="#FFFFFF" height="2" style="stroke:#000000;stroke-width:1.0;" width="4" x="816.1868" y="170.33"/><text fill="#000000" font-family="Verdana" font-size="14" lengthAdjust="spacing" textLength="81" x="732.1868" y="193.4052">ZAP Engine</text></g><!--entity User--><g id="elem_User"><ellipse cx="1272.6868" cy="152.83" fill="#FFFFFF" rx="8" ry="8" style="stroke:#000000;stroke-width:1.0;"/><path d="M1272.6868,160.83 L1272.6868,187.83 M1259.6868,168.83 L1285.6868,168.83 M1272.6868,187.83 L1259.6868,202.83 M1272.6868,187.83 L1285.6868,202.83 " fill="none" style="stroke:#000000;stroke-width:1.0;"/><text fill="#000000" font-family="Verdana" font-size="14" lengthAdjust="spacing" textLength="90" x="1227.6868" y="218.9052">User / CI/CD</text></g><!--entity Target--><g id="elem_Target"><polygon fill="#FFFFFF" points="1353.1868,169.33,1363.1868,159.33,1472.1868,159.33,1472.1868,196.3446,1462.1868,206.3446,1353.1868,206.3446,1353.1868,169.33" style="stroke:#000000;stroke-width:1.0;"/><line style="stroke:#000000;stroke-width:1.0;" x1="1462.1868" x2="1472.1868" y1="169.33" y2="159.33"/><line style="stroke:#000000;stroke-width:1.0;" x1="1353.1868" x2="1462.1868" y1="169.33" y2="169.33"/><line style="stroke:#000000;stroke-width:1.0;" x1="1462.1868" x2="1462.1868" y1="169.33" y2="206.3446"/><text fill="#000000" font-family="Verdana" font-size="14" lengthAdjust="spacing" textLength="46" x="1368.1868" y="193.4052">Target</text><text fill="#000000" font-family="Verdana" font-size="14" lengthAdjust="spacing" textLength="5" x="1414.1868" y="193.4052">&#160;</text><text fill="#000000" font-family="Verdana" font-size="14" lengthAdjust="spacing" textLength="28" x="1419.1868" y="193.4052">App</text></g><g id="elem_GMN17"><path d="M1507.1868,162.03 L1507.1868,203.6286 L1678.1868,203.6286 L1678.1868,172.03 L1668.1868,162.03 L1507.1868,162.03 " fill="#FFFFFF" style="stroke:#000000;stroke-width:1.0;"/><path d="M1668.1868,162.03 L1668.1868,172.03 L1678.1868,172.03 L1668.1868,162.03 " fill="#FFFFFF" style="stroke:#000000;stroke-width:1.0;"/><text fill="#000000" font-family="Verdana" font-size="13" lengthAdjust="spacing" textLength="116" x="1513.1868" y="180.0998">Unified Container</text><text fill="#000000" font-family="Verdana" font-size="13" lengthAdjust="spacing" textLength="150" x="1513.1868" y="195.8991">Shared Memory (4GB)</text></g><!--link UI to API--><g id="link_UI_API"><path d="M226.4068,182.83 C266.1468,182.83 309.1968,182.83 349.7168,182.83 " fill="none" id="UI-to-API" style="stroke:#000000;stroke-width:1.0;"/><polygon fill="#000000" points="355.7168,182.83,346.7168,178.83,350.7168,182.83,346.7168,186.83,355.7168,182.83" style="stroke:#000000;stroke-width:1.0;"/><text fill="#000000" font-family="Verdana" font-size="13" lengthAdjust="spacing" textLength="93" x="244.6868" y="176.8998">HTTPS / REST</text></g><!--link API to ZAP--><g id="link_API_ZAP"><path d="M513.3768,182.83 C575.1868,182.83 654.0068,182.83 710.7268,182.83 " fill="none" id="API-to-ZAP" style="stroke:#000000;stroke-width:1.0;"/><polygon fill="#000000" points="716.7268,182.83,707.7268,178.83,711.7268,182.83,707.7268,186.83,716.7268,182.83" style="stroke:#000000;stroke-width:1.0;"/><text fill="#000000" font-family="Verdana" font-size="13" lengthAdjust="spacing" textLength="167" x="531.6868" y="176.8998">ZAP API (localhost:8090)</text></g><!--link User to UI--><g id="link_User_UI"><path d="M1263.5668,143.49 C1254.7068,115.11 1238.1368,78.79 1208.6868,60.99 C1125.9568,11 431.3168,33.36 338.6868,60.99 C274.5068,80.14 216.3888,125.3337 182.6888,155.0237 " fill="none" id="User-to-UI" style="stroke:#000000;stroke-width:1.0;"/><polygon fill="#000000" points="178.1868,158.99,187.5841,156.0419,181.9385,155.6847,182.2956,150.0392,178.1868,158.99" style="stroke:#000000;stroke-width:1.0;"/><text fill="#000000" font-family="Verdana" font-size="13" lengthAdjust="spacing" textLength="115" x="712.1868" y="40.3998">Review &amp; Control</text></g><!--link API to LLM--><g id="link_API_LLM"><path d="M472.7768,158.88 C522.6468,129.06 613.8668,79.78 699.6868,60.99 C766.9868,46.26 793.0968,30.12 854.6868,60.99 C895.3968,81.4 920.0722,124.1732 933.4622,153.4632 " fill="none" id="API-to-LLM" style="stroke:#000000;stroke-width:1.0;"/><polygon fill="#000000" points="935.9568,158.92,935.8528,149.0717,933.878,154.3726,928.577,152.3978,935.9568,158.92" style="stroke:#000000;stroke-width:1.0;"/><text fill="#000000" font-family="Verdana" font-size="13" lengthAdjust="spacing" textLength="161" x="520.1868" y="40.3998">Analyze Intent (Prompt)</text></g><!--link ZAP to Target--><g id="link_ZAP_Target"><path d="M782.6668,158.94 C790.1368,129.92 807.3268,82.21 842.6868,60.99 C889.6568,32.81 1287.7068,34.56 1335.6868,60.99 C1373.4968,81.82 1393.3234,124.2373 1403.5334,153.3873 " fill="none" id="ZAP-to-Target" style="stroke:#000000;stroke-width:1.0;"/><polygon fill="#000000" points="1405.5168,159.05,1406.3168,149.2337,1403.864,154.3311,1398.7666,151.8782,1405.5168,159.05" style="stroke:#000000;stroke-width:1.0;"/><text fill="#000000" font-family="Verdana" font-size="13" lengthAdjust="spacing" textLength="180" x="1114.6868" y="40.3998">DAST Scan (Spider/Active)</text></g><!--link API to GCS--><g id="link_API_GCS"><path d="M472.7768,158.88 C522.6468,129.06 613.8668,79.78 699.6868,60.99 C772.6268,45.03 969.2968,26.82 1035.6868,60.99 C1075.5468,81.51 1098.8422,124.1813 1111.3222,153.4313 " fill="none" id="API-to-GCS" style="stroke:#000000;stroke-width:1.0;"/><polygon fill="#000000" points="1113.6768,158.95,1113.824,149.1022,1111.7146,154.3511,1106.4658,152.2418,1113.6768,158.95" style="stroke:#000000;stroke-width:1.0;"/><text fill="#000000" font-family="Verdana" font-size="13" lengthAdjust="spacing" textLength="199" x="846.1868" y="40.3998">Upload Reports (JSON/SARIF)</text></g><!--link ZAP to GMN17--><g id="link_ZAP_GMN17"><path d="M781.6368,159.01 C789.2268,122.49 809.8168,54.96 860.1868,36.33 C892.0768,24.53 1440.2968,24.53 1472.1868,36.33 C1530.0968,57.75 1567.8168,126.38 1583.8568,161.58 " fill="none" id="ZAP-GMN17" style="stroke:#000000;stroke-width:1.0;stroke-dasharray:7.0,7.0;"/></g><!--SRC=[NL9DJzmm4BtxLqnpGCc1BY0gbJrK2e5TWg2DukH2rOELp6Oj7Djol5jj4V-zO-y74ZuaddblPfwV_SMlSKImIaZDfbUfhN1YXCwCrcZKdlkTGjYCweenqNdZ86adT323efmLTmc82KA2TSfiUaYMnWnKKCIeKiAlZ1iJU6D0ouhkLGm8oHwkDneukgtiyCW8wtUDD0aMpcYFklyJHvGVy49CFgzAkALkHvpY3y9BNi6z7gJ6Y55umawRjeJp7w4Cvl3GD1Md4zNtl3aH0aICq6iUlo6HAjC9jJQJdt-_kBd88lkTnT_9CZ81HwabN7xz1fKpqQEdf-VFhBq9d3mbJo9fMN16tRJfoQD6k04zvDP6R1yo5jqdOMrGNkDMubyuWuAySaQnWsgQHcYkXThzGoY3ZnvIqZ9Qdx5m6Y8T1ipXBkSDy4veIBcLFRfPtdcvnUpOZdGHhRNA2BerjCRv2T97_kldZETrkSY2Pe_WvB3sO5O7orijLnBxA8wU5pqI0BuMZbBFE1gtW_HwUPinkaG8zVy1]--></g></svg>