<?xml version="1.0" encoding="us-ascii" standalone="no"?><svg xmlns="http://www.w3.org/2000/svg" xmlns:xlink="http://www.w3.org/1999/xlink" contentStyleType="text/css" height="838px" preserveAspectRatio="none" style="width:847px;height:838px;background:#FFFFFF;" version="1.1" viewBox="0 0 847 838" width="847px" zoomAndPan="magnify"><defs/><g><rect fill="#FFFFFF" height="180.7959" style="stroke:#000000;stroke-width:1.0;" width="10" x="757.5" y="411.0078"/><rect fill="#FFFFFF" height="136.9966" style="stroke:#000000;stroke-width:1.0;" width="699" x="131" y="426.0078"/><line style="stroke:#000000;stroke-width:1.0;" x1="28" x2="28" y1="83.0146" y2="756.001"/><line style="stroke:#000000;stroke-width:1.0;" x1="189" x2="189" y1="83.0146" y2="756.001"/><line style="stroke:#000000;stroke-width:1.0;" x1="405" x2="405" y1="83.0146" y2="756.001"/><line style="stroke:#000000;stroke-width:1.0;" x1="642" x2="642" y1="83.0146" y2="756.001"/><line style="stroke:#000000;stroke-width:1.0;" x1="762" x2="762" y1="83.0146" y2="756.001"/><text fill="#000000" font-family="Verdana" font-size="14" lengthAdjust="spacing" textLength="31" x="10" y="80.0752">User</text><ellipse cx="28.5" cy="14" fill="#FFFFFF" rx="8" ry="8" style="stroke:#000000;stroke-width:1.0;"/><path d="M28.5,22 L28.5,49 M15.5,30 L41.5,30 M28.5,49 L15.5,64 M28.5,49 L41.5,64 " fill="none" style="stroke:#000000;stroke-width:1.0;"/><text fill="#000000" font-family="Verdana" font-size="14" lengthAdjust="spacing" textLength="31" x="10" y="769.0762">User</text><ellipse cx="28.5" cy="781.0156" fill="#FFFFFF" rx="8" ry="8" style="stroke:#000000;stroke-width:1.0;"/><path d="M28.5,789.0156 L28.5,816.0156 M15.5,797.0156 L41.5,797.0156 M28.5,816.0156 L15.5,831.0156 M28.5,816.0156 L41.5,831.0156 " fill="none" style="stroke:#000000;stroke-width:1.0;"/><rect fill="#FFFFFF" height="31.0146" rx="2.5" ry="2.5" style="stroke:#000000;stroke-width:1.0;" width="77" x="151" y="51"/><text fill="#000000" font-family="Verdana" font-size="14" lengthAdjust="spacing" textLength="63" x="158" y="72.0752">Frontend</text><rect fill="#FFFFFF" height="31.0146" rx="2.5" ry="2.5" style="stroke:#000000;stroke-width:1.0;" width="77" x="151" y="755.001"/><text fill="#000000" font-family="Verdana" font-size="14" lengthAdjust="spacing" textLength="63" x="158" y="776.0762">Frontend</text><rect fill="#FFFFFF" height="31.0146" rx="2.5" ry="2.5" style="stroke:#000000;stroke-width:1.0;" width="73" x="369" y="51"/><text fill="#000000" font-family="Verdana" font-size="14" lengthAdjust="spacing" textLength="59" x="376" y="72.0752">Backend</text><rect fill="#FFFFFF" height="31.0146" rx="2.5" ry="2.5" style="stroke:#000000;stroke-width:1.0;" width="73" x="369" y="755.001"/><text fill="#000000" font-family="Verdana" font-size="14" lengthAdjust="spacing" textLength="59" x="376" y="776.0762">Backend</text><rect fill="#FFFFFF" height="31.0146" rx="2.5" ry="2.5" style="stroke:#000000;stroke-width:1.0;" width="85" x="600" y="51"/><text fill="#000000" font-family="Verdana" font-size="14" lengthAdjust="spacing" textLength="71" x="607" y="72.0752">Gemini AI</text><rect fill="#FFFFFF" height="31.0146" rx="2.5" ry="2.5" style="stroke:#000000;stroke-width:1.0;" width="85" x="600" y="755.001"/><text fill="#000000" font-family="Verdana" font-size="14" lengthAdjust="spacing" textLength="71" x="607" y="776.0762">Gemini AI</text><rect fill="#FFFFFF" height="31.0146" rx="2.5" ry="2.5" style="stroke:#000000;stroke-width:1.0;" width="95" x="715" y="51"/><text fill="#000000" font-family="Verdana" font-size="14" lengthAdjust="spacing" textLength="81" x="722" y="72.0752">ZAP Engine</text><rect fill="#FFFFFF" height="31.0146" rx="2.5" ry="2.5" style="stroke:#000000;stroke-width:1.0;" width="95" x="715" y="755.001"/><text fill="#000000" font-family="Verdana" font-size="14" lengthAdjust="spacing" textLength="81" x="722" y="776.0762">ZAP Engine</text><rect fill="#FFFFFF" height="180.7959" style="stroke:#000000;stroke-width:1.0;" width="10" x="757.5" y="411.0078"/><rect fill="#FFFFFF" height="3" style="stroke:#FFFFFF;stroke-width:1.0;" width="835" x="5" y="113.9143"/><line style="stroke:#000000;stroke-width:0.5;" x1="5" x2="840" y1="113.9143" y2="113.9143"/><line style="stroke:#000000;stroke-width:0.5;" x1="5" x2="840" y1="116.9143" y2="116.9143"/><rect fill="#FFFFFF" height="23.7993" style="stroke:#000000;stroke-width:1.0;" width="81" x="382" y="103.0146"/><text fill="#000000" font-family="Verdana" font-size="13" font-weight="bold" lengthAdjust="spacing" textLength="63" x="388" y="120.0845">Planning</text><polygon fill="#000000" points="177.5,154.6133,187.5,158.6133,177.5,162.6133,181.5,158.6133" style="stroke:#000000;stroke-width:1.0;"/><line style="stroke:#000000;stroke-width:1.0;" x1="28.5" x2="183.5" y1="158.6133" y2="158.6133"/><text fill="#000000" font-family="Verdana" font-size="13" lengthAdjust="spacing" textLength="137" x="35.5" y="153.8838">Enter "Scan Prompt"</text><polygon fill="#000000" points="393.5,184.4126,403.5,188.4126,393.5,192.4126,397.5,188.4126" style="stroke:#000000;stroke-width:1.0;"/><line style="stroke:#000000;stroke-width:1.0;" x1="189.5" x2="399.5" y1="188.4126" y2="188.4126"/><text fill="#000000" font-family="Verdana" font-size="13" lengthAdjust="spacing" textLength="192" x="196.5" y="183.6831">POST /api/analyze {prompt}</text><polygon fill="#000000" points="630.5,214.2119,640.5,218.2119,630.5,222.2119,634.5,218.2119" style="stroke:#000000;stroke-width:1.0;"/><line style="stroke:#000000;stroke-width:1.0;" x1="405.5" x2="636.5" y1="218.2119" y2="218.2119"/><text fill="#000000" font-family="Verdana" font-size="13" lengthAdjust="spacing" textLength="133" x="412.5" y="213.4824">Generative Analysis</text><polygon fill="#000000" points="416.5,244.0112,406.5,248.0112,416.5,252.0112,412.5,248.0112" style="stroke:#000000;stroke-width:1.0;"/><line style="stroke:#000000;stroke-width:1.0;stroke-dasharray:2.0,2.0;" x1="410.5" x2="641.5" y1="248.0112" y2="248.0112"/><text fill="#000000" font-family="Verdana" font-size="13" lengthAdjust="spacing" textLength="213" x="422.5" y="243.2817">{scan_type, checks, reasoning}</text><polygon fill="#000000" points="200.5,273.8105,190.5,277.8105,200.5,281.8105,196.5,277.8105" style="stroke:#000000;stroke-width:1.0;"/><line style="stroke:#000000;stroke-width:1.0;stroke-dasharray:2.0,2.0;" x1="194.5" x2="404.5" y1="277.8105" y2="277.8105"/><text fill="#000000" font-family="Verdana" font-size="13" lengthAdjust="spacing" textLength="126" x="206.5" y="273.0811">Scan Configuration</text><rect fill="#FFFFFF" height="3" style="stroke:#FFFFFF;stroke-width:1.0;" width="835" x="5" y="306.7102"/><line style="stroke:#000000;stroke-width:0.5;" x1="5" x2="840" y1="306.7102" y2="306.7102"/><line style="stroke:#000000;stroke-width:0.5;" x1="5" x2="840" y1="309.7102" y2="309.7102"/><rect fill="#FFFFFF" height="23.7993" style="stroke:#000000;stroke-width:1.0;" width="90" x="377.5" y="295.8105"/><text fill="#000000" font-family="Verdana" font-size="13" font-weight="bold" lengthAdjust="spacing" textLength="72" x="383.5" y="312.8804">Execution</text><polygon fill="#000000" points="177.5,347.4092,187.5,351.4092,177.5,355.4092,181.5,351.4092" style="stroke:#000000;stroke-width:1.0;"/><line style="stroke:#000000;stroke-width:1.0;" x1="28.5" x2="183.5" y1="351.4092" y2="351.4092"/><text fill="#000000" font-family="Verdana" font-size="13" lengthAdjust="spacing" textLength="70" x="35.5" y="346.6797">Start Scan</text><polygon fill="#000000" points="393.5,377.2085,403.5,381.2085,393.5,385.2085,397.5,381.2085" style="stroke:#000000;stroke-width:1.0;"/><line style="stroke:#000000;stroke-width:1.0;" x1="189.5" x2="399.5" y1="381.2085" y2="381.2085"/><text fill="#000000" font-family="Verdana" font-size="13" lengthAdjust="spacing" textLength="102" x="196.5" y="376.479">POST /api/scan</text><polygon fill="#000000" points="745.5,407.0078,755.5,411.0078,745.5,415.0078,749.5,411.0078" style="stroke:#000000;stroke-width:1.0;"/><line style="stroke:#000000;stroke-width:1.0;" x1="405.5" x2="751.5" y1="411.0078" y2="411.0078"/><text fill="#000000" font-family="Verdana" font-size="13" lengthAdjust="spacing" textLength="178" x="412.5" y="406.2783">Start Spider &amp; Active Scan</text><path d="M131,426.0078 L207,426.0078 L207,433.8071 L197,443.8071 L131,443.8071 L131,426.0078 " fill="#FFFFFF" style="stroke:#000000;stroke-width:1.0;"/><rect fill="none" height="136.9966" style="stroke:#000000;stroke-width:1.0;" width="699" x="131" y="426.0078"/><text fill="#000000" font-family="Verdana" font-size="13" font-weight="bold" lengthAdjust="spacing" textLength="31" x="146" y="440.0776">loop</text><text fill="#000000" font-family="Verdana" font-size="11" font-weight="bold" lengthAdjust="spacing" textLength="125" x="222" y="439.0669">[Polling (Every 5s)]</text><polygon fill="#000000" points="393.5,461.6064,403.5,465.6064,393.5,469.6064,397.5,465.6064" style="stroke:#000000;stroke-width:1.0;"/><line style="stroke:#000000;stroke-width:1.0;" x1="189.5" x2="399.5" y1="465.6064" y2="465.6064"/><text fill="#000000" font-family="Verdana" font-size="13" lengthAdjust="spacing" textLength="127" x="196.5" y="460.877">GET /api/scan/{id}</text><polygon fill="#000000" points="745.5,491.4058,755.5,495.4058,745.5,499.4058,749.5,495.4058" style="stroke:#000000;stroke-width:1.0;"/><line style="stroke:#000000;stroke-width:1.0;" x1="405.5" x2="751.5" y1="495.4058" y2="495.4058"/><text fill="#000000" font-family="Verdana" font-size="13" lengthAdjust="spacing" textLength="70" x="412.5" y="490.6763">Get Status</text><polygon fill="#000000" points="416.5,521.2051,406.5,525.2051,416.5,529.2051,412.5,525.2051" style="stroke:#000000;stroke-width:1.0;"/><line style="stroke:#000000;stroke-width:1.0;stroke-dasharray:2.0,2.0;" x1="410.5" x2="756.5" y1="525.2051" y2="525.2051"/><text fill="#000000" font-family="Verdana" font-size="13" lengthAdjust="spacing" textLength="77" x="422.5" y="520.4756">Progress %</text><polygon fill="#000000" points="200.5,551.0044,190.5,555.0044,200.5,559.0044,196.5,555.0044" style="stroke:#000000;stroke-width:1.0;"/><line style="stroke:#000000;stroke-width:1.0;stroke-dasharray:2.0,2.0;" x1="194.5" x2="404.5" y1="555.0044" y2="555.0044"/><text fill="#000000" font-family="Verdana" font-size="13" lengthAdjust="spacing" textLength="94" x="206.5" y="550.2749">Status Update</text><polygon fill="#000000" points="416.5,587.8037,406.5,591.8037,416.5,595.8037,412.5,591.8037" style="stroke:#000000;stroke-width:1.0;"/><line style="stroke:#000000;stroke-width:1.0;stroke-dasharray:2.0,2.0;" x1="410.5" x2="761.5" y1="591.8037" y2="591.8037"/><text fill="#000000" font-family="Verdana" font-size="13" lengthAdjust="spacing" textLength="108" x="422.5" y="587.0742">Scan Completed</text><rect fill="#FFFFFF" height="3" style="stroke:#FFFFFF;stroke-width:1.0;" width="835" x="5" y="620.7034"/><line style="stroke:#000000;stroke-width:0.5;" x1="5" x2="840" y1="620.7034" y2="620.7034"/><line style="stroke:#000000;stroke-width:0.5;" x1="5" x2="840" y1="623.7034" y2="623.7034"/><rect fill="#FFFFFF" height="23.7993" style="stroke:#000000;stroke-width:1.0;" width="89" x="378" y="609.8037"/><text fill="#000000" font-family="Verdana" font-size="13" font-weight="bold" lengthAdjust="spacing" textLength="71" x="384" y="626.8735">Reporting</text><polygon fill="#000000" points="393.5,661.4023,403.5,665.4023,393.5,669.4023,397.5,665.4023" style="stroke:#000000;stroke-width:1.0;"/><line style="stroke:#000000;stroke-width:1.0;" x1="189.5" x2="399.5" y1="665.4023" y2="665.4023"/><text fill="#000000" font-family="Verdana" font-size="13" lengthAdjust="spacing" textLength="178" x="196.5" y="660.6729">GET /api/scan/{id}/results</text><line style="stroke:#000000;stroke-width:1.0;" x1="405.5" x2="447.5" y1="695.2017" y2="695.2017"/><line style="stroke:#000000;stroke-width:1.0;" x1="447.5" x2="447.5" y1="695.2017" y2="708.2017"/><line style="stroke:#000000;stroke-width:1.0;" x1="406.5" x2="447.5" y1="708.2017" y2="708.2017"/><polygon fill="#000000" points="416.5,704.2017,406.5,708.2017,416.5,712.2017,412.5,708.2017" style="stroke:#000000;stroke-width:1.0;"/><text fill="#000000" font-family="Verdana" font-size="13" lengthAdjust="spacing" textLength="79" x="412.5" y="690.4722">Fetch Alerts</text><polygon fill="#000000" points="200.5,734.001,190.5,738.001,200.5,742.001,196.5,738.001" style="stroke:#000000;stroke-width:1.0;"/><line style="stroke:#000000;stroke-width:1.0;stroke-dasharray:2.0,2.0;" x1="194.5" x2="404.5" y1="738.001" y2="738.001"/><text fill="#000000" font-family="Verdana" font-size="13" lengthAdjust="spacing" textLength="133" x="206.5" y="733.2715">Vulnerability Report</text><!--SRC=[VP91ImCn48Nl-HLZGL6mzEIbK66LjXGgBjPwy28nExQXQHAIsM8j_dSdSRUs8kvfmvkPzyrBJcY9QmHlfBP2Ad81vX63y3AGLjfBIz0P1MS9RTK16M4-EHPlf5grMb7-4iUurbP3CSdoT7ftB3yN9GpjGblCEX-560oWDD9QRHSm68X40zrhjkrpAV6XCrFIGXdSsbD7p2T9PUC-bFUpH-X9htlIIhFzGDZvNFKfM4zb3D27CLeCalG6eKXrKKV10dJRERl81Y-qzNW9Qebg5IyXe8mkCJMp6gACSklicrxKQQQpUO7XEwewdNvlC2DUFtVz3PwSMrXEOz_WTSL3pg1GcJiFaEbV4dx7PfppK3fZKcxdmms6BLp52m7y7LYDXmTElPskFdF5eUKOATbI7REKxcWV3QU-21WZdFwq_Qp6BJ3t5JC9VX527BKsKQszGS9AL7ZCpwaze7VyE9fx_u-vnmoreTX6bSj6I6e9XS7G2WtPKstIZRzgesdRk7m1]--></g></svg>